HIERARCHY
ROOT Hips
{
    OFFSET 0.000000 0.000000 0.000000
    CHANNELS 6 Xposition Yposition Zposition Zrotation Xrotation Yrotation
    JOINT Spine
    {
        OFFSET -0.000000 14.517291 0.000000
        CHANNELS 3 Zrotation Xrotation Yrotation
        JOINT Spine1
        {
            OFFSET -0.000000 37.558300 0.000000
            CHANNELS 3 Zrotation Xrotation Yrotation
            JOINT Neck
            {
                OFFSET -0.000000 37.404057 3.400369
                CHANNELS 3 Zrotation Xrotation Yrotation
                JOINT Head
                {
                    OFFSET -0.000000 24.785618 -3.540803
                    CHANNELS 3 Zrotation Xrotation Yrotation
                    End Site
                    {
                        OFFSET -0.000000 35.408028 0.000000
                    }
                }
            }
            JOINT LeftShoulder
            {
                OFFSET 6.992933 33.973492 -0.192664
                CHANNELS 3 Zrotation Xrotation Yrotation
                JOINT LeftArm
                {
                    OFFSET 21.527611 0.000000 0.000000
                    CHANNELS 3 Zrotation Xrotation Yrotation
                    JOINT LeftForeArm
                    {
                        OFFSET 56.353916 0.000000 0.000000
                        CHANNELS 3 Zrotation Xrotation Yrotation
                        JOINT LeftHand
                        {
                            OFFSET 47.774071 0.000000 0.000000
                            CHANNELS 3 Zrotation Xrotation Yrotation
                            End Site
                            {
                                OFFSET 26.556021 0.000000 0.000000
                            }
                        }
                    }
                }
            }
            JOINT RightShoulder
            {
                OFFSET -7.065357 33.973492 -0.192664
                CHANNELS 3 Zrotation Xrotation Yrotation
                JOINT RightArm
                {
                    OFFSET -21.527611 0.000000 0.000000
                    CHANNELS 3 Zrotation Xrotation Yrotation
                    JOINT RightForeArm
                    {
                        OFFSET -56.353916 0.000000 0.000000
                        CHANNELS 3 Zrotation Xrotation Yrotation
                        JOINT RightHand
                        {
                            OFFSET -47.774071 0.000000 0.000000
                            CHANNELS 3 Zrotation Xrotation Yrotation
                            End Site
                            {
                                OFFSET -26.556021 0.000000 0.000000
                            }
                        }
                    }
                }
            }
        }
    }
    JOINT LeftUpLeg
    {
        OFFSET 17.704014 0.000000 0.000000
        CHANNELS 3 Zrotation Xrotation Yrotation
        JOINT LeftLeg
        {
            OFFSET -0.000000 -81.181816 0.000000
            CHANNELS 3 Zrotation Xrotation Yrotation
            JOINT LeftFoot
            {
                OFFSET -0.000000 -62.821102 0.000000
                CHANNELS 3 Zrotation Xrotation Yrotation
                JOINT LeftToeBase
                {
                    OFFSET -0.000000 -11.507608 26.556021
                    CHANNELS 3 Zrotation Xrotation Yrotation
                    End Site
                    {
                        OFFSET -0.000000 0.000000 7.081605
                    }
                }
            }
        }
    }
    JOINT RightUpLeg
    {
        OFFSET -17.704014 0.000000 0.000000
        CHANNELS 3 Zrotation Xrotation Yrotation
        JOINT RightLeg
        {
            OFFSET -0.000000 -81.181816 0.000000
            CHANNELS 3 Zrotation Xrotation Yrotation
            JOINT RightFoot
            {
                OFFSET -0.000000 -62.821102 0.000000
                CHANNELS 3 Zrotation Xrotation Yrotation
                JOINT RightToeBase
                {
                    OFFSET -0.000000 -11.507608 26.556021
                    CHANNELS 3 Zrotation Xrotation Yrotation
                    End Site
                    {
                        OFFSET -0.000000 0.000000 7.081605
                    }
                }
            }
        }
    }
}
MOTION
Frames:    12
Frame Time:    0.008333
33.454208    159.462723    -102.555443    -0.173177    -1.520326    26.372362    -3.449179    -2.601321    -6.053404    -6.614832    4.592801    -1.719787    14.081813    -9.274604    0.908982    4.453537    8.147690    -1.993522    14.416559    5.318545    -26.006226    -35.302952    12.710011    -98.883034    47.541054    -74.121460    -63.415348    -23.410494    -59.020416    -34.401600    -4.673125    2.146730    -5.982240    15.017020    25.420418    14.757069    16.169001    14.132693    2.813469    3.954261    14.588711    24.818850    8.854261    2.045352    -0.573028    -10.408073    22.567087    -17.252447    6.290810    -22.048634    44.330002    0.000000    0.000000    0.000000    -14.795108    -26.094990    -7.864451    11.520230    27.933372    -14.045327    3.259197    12.415907    -13.372779    0.000000    0.000000    0.000000    
33.418453    159.469971    -102.553177    -0.181720    -1.519653    26.370033    -3.435313    -2.598276    -6.065236    -6.626829    4.582037    -1.724010    14.086008    -9.268778    0.896378    4.495365    8.140083    -2.003573    14.441680    5.301123    -26.008602    -35.315731    12.770677    -98.887810    45.915695    -74.156693    -65.147575    -21.787357    -59.579624    -33.166973    -4.651437    2.147358    -5.985427    15.049054    25.350601    14.735206    16.202536    14.119964    2.775039    3.996003    14.587037    24.752090    8.873116    2.037244    -0.581992    -10.420696    22.562183    -17.240507    6.294880    -22.034773    44.341900    0.000000    0.000000    0.000000    -14.775340    -26.102097    -7.868339    11.520517    27.925186    -14.066385    3.246164    12.432911    -13.354747    0.000000    0.000000    0.000000    
33.385723    159.475296    -102.555954    -0.188346    -1.513221    26.375086    -3.421541    -2.600198    -6.084545    -6.632588    4.572839    -1.730820    14.041825    -9.262538    0.869571    4.579319    8.136775    -2.014226    14.446298    5.293695    -26.010107    -35.291035    12.784200    -98.871826    47.995678    -74.078911    -63.057632    -23.570065    -58.821873    -34.628819    -4.634262    2.142592    -6.003428    15.059456    25.305649    14.729497    16.225000    14.114001    2.768620    3.973547    14.574266    24.684359    8.885406    2.016304    -0.590735    -10.423828    22.573519    -17.266039    6.300914    -22.032274    44.371510    0.000000    0.000000    0.000000    -14.767899    -26.111807    -7.887455    11.519701    27.920881    -14.067462    3.241667    12.444030    -13.344765    0.000000    0.000000    0.000000    
33.352036    159.479172    -102.557739    -0.194106    -1.509863    26.381178    -3.411958    -2.594537    -6.103394    -6.630880    4.560559    -1.738057    14.024354    -9.284760    0.857821    4.629121    8.167960    -2.022789    14.455084    5.291392    -26.008354    -35.252396    12.822217    -98.891823    46.105103    -74.186348    -65.032272    -21.760210    -59.595882    -33.195827    -4.624264    2.117826    -6.013520    15.081413    25.279011    14.711056    16.246450    14.112103    2.745779    3.932258    14.564957    24.647161    8.901467    1.997016    -0.611796    -10.432582    22.588457    -17.288240    6.305782    -22.028629    44.401672    0.000000    0.000000    0.000000    -14.758177    -26.119928    -7.897383    11.520020    27.915987    -14.076387    3.236415    12.465993    -13.336611    0.000000    0.000000    0.000000    
33.321117    159.481735    -102.554825    -0.195444    -1.516635    26.390604    -3.400984    -2.582110    -6.122273    -6.630329    4.549235    -1.745247    14.016921    -9.305948    0.851400    4.666036    8.206151    -2.029239    14.463545    5.300336    -26.008057    -37.498043    12.905070    -98.447571    37.262558    -72.913597    -73.783401    -20.839794    -58.695015    -32.129539    -4.603452    2.118194    -6.035307    15.100783    25.271317    14.715741    16.197666    14.082782    2.733650    3.933455    14.538686    24.644505    8.918127    1.995131    -0.623672    -10.440979    22.588272    -17.259052    6.294504    -22.022938    44.375069    0.000000    0.000000    0.000000    -14.749492    -26.115229    -7.901849    11.520029    27.919846    -14.038485    3.243884    12.459035    -13.366344    0.000000    0.000000    0.000000    
33.290379    159.482117    -102.555336    -0.194125    -1.517173    26.397963    -3.400037    -2.572596    -6.144056    -6.622797    4.532184    -1.753882    14.035126    -9.300168    0.858602    4.664350    8.218970    -2.025929    14.456107    5.316687    -26.008104    -37.461277    12.891879    -98.448982    38.798298    -72.952789    -72.198700    -22.399473    -58.147293    -33.321190    -4.586456    2.103235    -6.037199    15.077065    25.227264    14.703930    16.256266    14.097054    2.747542    3.891549    14.538461    24.578175    8.929125    1.988456    -0.623827    -10.445432    22.590155    -17.255796    6.298248    -22.013454    44.371628    0.000000    0.000000    0.000000    -14.749230    -26.115791    -7.901318    11.538060    27.918783    -14.036203    3.248551    12.456063    -13.385983    0.000000    0.000000    0.000000    
33.260807    159.480759    -102.550865    -0.189674    -1.527728    26.406071    -3.395475    -2.559689    -6.165717    -6.616021    4.520143    -1.762267    14.025098    -9.296927    0.856202    4.704114    8.239280    -2.023659    14.431571    5.317008    -26.013536    -37.428905    12.921134    -98.446297    36.756123    -72.970711    -74.259109    -20.598980    -58.956245    -31.870407    -4.576514    2.103218    -6.036116    15.069407    25.198622    14.704478    16.354889    14.463706    2.595249    3.458490    14.840153    24.846365    8.942672    1.998155    -0.613017    -10.443047    22.586855    -17.273235    6.305037    -22.005709    44.356567    0.000000    0.000000    0.000000    -14.746829    -26.106514    -7.879570    11.564329    27.917572    -14.070209    3.230247    12.451267    -13.378452    0.000000    0.000000    0.000000    
33.231182    159.479172    -102.546379    -0.182863    -1.539451    26.409134    -3.388086    -2.544875    -6.178473    -6.616535    4.503854    -1.767704    13.996549    -9.282356    0.846146    4.765518    8.257315    -2.021987    14.415602    5.320184    -26.016405    -37.406403    12.913280    -98.434860    38.241798    -73.005119    -72.702713    -22.084522    -58.432335    -33.014805    -4.573868    2.127668    -6.033329    15.101615    25.227865    14.697305    16.299711    14.416310    2.594751    3.384539    14.780105    24.904934    8.955512    2.010221    -0.605136    -10.444729    22.584618    -17.280771    6.296734    -22.006100    44.350864    0.000000    0.000000    0.000000    -14.742187    -26.095648    -7.871412    11.577293    27.917585    -14.099492    3.216988    12.443640    -13.351149    0.000000    0.000000    0.000000    
33.204262    159.473801    -102.546074    -0.168294    -1.541638    26.412083    -3.402826    -2.534682    -6.188826    -6.597132    4.496707    -1.772309    14.008758    -9.261292    0.837992    4.751524    8.253998    -2.031660    14.394009    5.305525    -26.032703    -37.386482    12.921391    -98.410378    38.129642    -73.021126    -72.780983    -22.037466    -58.501263    -32.977196    -4.580110    2.147202    -6.054984    15.090448    25.233498    14.727440    16.141380    13.780728    2.836944    4.145584    14.257696    24.328629    8.955059    2.014346    -0.596046    -10.447532    22.586411    -17.284397    6.288225    -22.011614    44.340298    0.000000    0.000000    0.000000    -14.755714    -26.094059    -7.866064    11.597591    27.926294    -14.113813    3.221634    12.428205    -13.361554    0.000000    0.000000    0.000000    
33.174648    159.467621    -102.543961    -0.159237    -1.548268    26.417974    -3.405217    -2.528665    -6.199599    -6.593897    4.494845    -1.776221    14.009706    -9.237202    0.819034    4.767568    8.252005    -2.047391    14.393979    5.298212    -26.048954    -37.355518    12.915000    -98.384468    38.175201    -73.035103    -72.697906    -22.033072    -58.530228    -32.982330    -4.565170    2.159601    -6.059896    15.077451    25.223934    14.726372    16.113197    13.785020    2.862684    4.297744    14.286524    24.211548    8.961913    2.014330    -0.581461    -10.446041    22.603077    -17.292149    6.296680    -22.010427    44.329536    0.000000    0.000000    0.000000    -14.756650    -26.089228    -7.861047    11.609947    27.934219    -14.122143    3.204179    12.412332    -13.342409    0.000000    0.000000    0.000000    
33.146412    159.463531    -102.544891    -0.151243    -1.550272    26.417572    -3.414858    -2.524987    -6.210404    -6.573641    4.488155    -1.780978    13.993084    -9.215464    0.805970    4.796539    8.258872    -2.052674    14.383361    5.290951    -26.068254    -37.341602    12.901903    -98.332100    38.194725    -73.033882    -72.638008    -22.072136    -58.524509    -33.034653    -4.560752    2.179749    -6.065409    15.063443    25.214827    14.741338    16.095854    13.719506    2.894620    4.380552    14.232510    24.161978    8.966114    2.008699    -0.588134    -10.449780    22.616571    -17.302977    6.294969    -22.015949    44.338142    0.000000    0.000000    0.000000    -14.760894    -26.093128    -7.846113    11.630494    27.941284    -14.133518    3.203204    12.405060    -13.352546    0.000000    0.000000    0.000000    
33.118813    159.457275    -102.545212    -0.137278    -1.552860    26.416191    -3.424937    -2.520627    -6.214409    -6.562732    4.483490    -1.783033    13.982846    -9.211204    0.796977    4.825327    8.289493    -2.058395    14.387583    5.287121    -26.091438    -37.311577    12.878387    -98.271881    38.357136    -73.040909    -72.436234    -22.174175    -58.497814    -33.111473    -4.571612    2.160313    -6.059371    15.088037    25.221262    14.714681    16.253994    14.430988    2.639606    3.551807    14.823200    24.837343    8.964292    2.003470    -0.580119    -10.449594    22.637657    -17.310774    6.297861    -22.015421    44.346249    0.000000    0.000000    0.000000    -14.770891    -26.095581    -7.825876    11.654968    27.952198    -14.172994    3.183744    12.394767    -13.320630    0.000000    0.000000    0.000000    
